<svg width="30" height="31" viewBox="0 0 30 31" fill="none" xmlns="http://www.w3.org/2000/svg">
<circle cx="15" cy="15.3208" r="14.75" fill="#2CB34A" stroke="white" stroke-width="0.5"/>
<g clip-path="url(#clip0_1025_52)">
<path d="M11.9079 8.81815C11.714 8.6242 11.52 7.87309 11.3261 7.67209C10.1483 6.44492 9.07978 5.12253 9.1503 4.42432C9.29841 2.90093 12.6061 5.2248 12.6061 5.2248C12.6061 5.2248 12.4615 2.81982 14.2529 2.81982C16.0443 2.81982 15.8997 5.2248 15.8997 5.2248C15.8997 5.2248 19.2075 2.90093 19.3556 4.42432C19.4226 5.12253 18.3611 6.43786 17.1904 7.66151C16.9929 7.86604 16.7954 8.6242 16.598 8.81815C20.5722 9.99243 23.1711 12.6055 23.827 17.6799C24.0492 19.4043 24.169 21.774 23.5061 23.2198C22.9736 24.38 22.2437 25.2228 20.9248 25.6001C20.7344 25.653 19.5037 25.6882 19.3062 25.7129C18.5057 25.8258 16.2489 26.1043 13.6394 26.1043C11.3225 26.1043 9.78152 25.8504 9.17499 25.7306C9.00925 25.6988 8.84351 25.6565 8.68482 25.6036C7.2637 25.1346 6.65012 24.4893 6.11411 23.3679C5.40884 21.8904 5.00684 20.1977 5.00684 18.3993C5.00684 13.5329 7.94076 9.99596 11.915 8.82168L11.9079 8.81815Z" fill="#FFBB33"/>
<path d="M9.20703 17.45C9.20703 19.6998 11.0337 21.5265 13.2835 21.5265C15.5333 21.5265 17.36 19.7033 17.36 17.45C17.36 15.1967 15.5333 13.3735 13.2835 13.3735C11.0337 13.3735 9.20703 15.1967 9.20703 17.45Z" fill="#474656"/>
<path d="M15.2467 18.4628C15.2362 17.3767 14.0583 17.2215 14.0583 17.2215C13.8961 17.2215 13.7445 17.2109 13.6105 17.1933V15.5183C14.2452 15.6911 14.0337 16.3082 14.0337 16.3082H15.0457C15.0457 16.3082 15.4583 14.7354 13.6105 14.5133V14.3757C13.6105 14.1853 13.4518 14.0337 13.2579 14.0337C13.0639 14.0337 12.9017 14.1889 12.9017 14.3757V14.4956C11.2761 14.5909 11.2514 15.6558 11.2725 16.2588C11.2937 16.8477 11.4101 17.5883 12.9017 17.8915V19.5665C12.2916 19.3444 12.4398 18.5368 12.4398 18.5368H11.2761C11.2302 19.0764 11.2655 20.092 12.9017 20.2401V20.5222C12.9017 20.7126 13.0604 20.8642 13.2579 20.8642C13.4553 20.8642 13.6105 20.7091 13.6105 20.5222V20.2507C14.7707 20.1872 15.2608 19.7041 15.2467 18.4628ZM12.3128 16.3117C12.3128 16.3117 12.2811 15.684 12.9017 15.5183V17.0276C12.274 16.7596 12.3128 16.3152 12.3128 16.3152V16.3117ZM13.6105 19.5771V18.0396C14.5767 18.3641 14.3898 19.3444 13.6105 19.5771Z" fill="#E5E5E5"/>
<g style="mix-blend-mode:multiply" opacity="0.5">
<path d="M23.8231 17.6799C23.2448 13.2014 21.1501 10.6448 17.9376 9.29775C17.8847 9.28717 17.8354 9.26954 17.779 9.26248H17.7931C17.4052 9.09322 17.0067 8.94158 16.5976 8.82169C16.7105 8.71237 16.8198 8.42321 16.9326 8.15521C16.9326 8.15521 16.9326 8.14815 16.9362 8.14463C16.9362 8.14463 16.9362 8.14463 16.9362 8.1411C17.0208 7.9401 17.1054 7.7532 17.1865 7.66504C17.2817 7.56631 17.3769 7.46404 17.4686 7.3653C17.5885 7.23483 17.7084 7.10435 17.8248 6.97388C17.8424 6.95625 17.8565 6.93509 17.8742 6.91746C17.9588 6.82225 18.0434 6.72351 18.1245 6.62477C18.1598 6.58598 18.1951 6.54366 18.2268 6.50487C18.3291 6.38145 18.4278 6.25803 18.523 6.13108C18.5301 6.12403 18.5371 6.11345 18.5406 6.1064C18.65 5.96181 18.7558 5.81371 18.8545 5.6656C18.8651 5.6515 18.8756 5.63386 18.8862 5.61623C19.193 5.14723 19.3693 4.73464 19.3411 4.4349C19.3235 4.26916 19.2706 4.15279 19.1895 4.07169C19.1719 4.05406 19.1578 4.03995 19.1366 4.02232C19.1119 4.00469 19.0837 3.98706 19.0555 3.97648C18.6888 3.80721 18.0293 4.0329 17.4052 4.33617C17.3911 4.34322 17.3769 4.35027 17.3628 4.35732C17.4545 4.84396 17.0984 5.36233 16.8374 5.74318C16.4072 6.3744 15.8924 6.95272 15.3669 7.50988C15.0919 7.8731 15.4339 8.9839 15.8324 9.27306H15.8007C18.2233 10.3415 20.0993 12.3868 20.9562 14.8905C21.4464 16.3258 21.605 17.8668 21.4852 19.3761C21.3547 20.9841 20.9245 22.7191 20.0041 24.0661C19.5245 24.7714 18.9003 25.459 18.1386 25.8646C18.6429 25.8117 19.0379 25.7588 19.2882 25.7235C19.4822 25.6953 20.7164 25.6636 20.9068 25.6107C22.2257 25.2333 22.9521 24.3905 23.4881 23.2304C24.1511 21.7881 24.0347 19.4184 23.809 17.6905L23.8231 17.6799Z" fill="#598E38"/>
</g>
<path d="M17.8111 9.25878H10.6914C11.0934 8.96962 11.4319 7.85882 11.1569 7.49561H17.3456C17.0706 7.85882 17.4126 8.96962 17.8111 9.25878Z" fill="#474656"/>
</g>
<defs>
<clipPath id="clip0_1025_52">
<rect width="19" height="23.281" fill="white" transform="translate(5 2.8208)"/>
</clipPath>
</defs>
</svg>
