<svg width="30" height="31" viewBox="0 0 30 31" fill="none" xmlns="http://www.w3.org/2000/svg">
<circle cx="15" cy="15.3208" r="14.75" fill="#2CB34A" stroke="white" stroke-width="0.5"/>
<path d="M13.8994 18.9779C13.9061 18.9645 13.9128 18.9533 13.9173 18.9399C13.9106 18.9533 13.9061 18.9645 13.8994 18.9779Z" fill="#F4D733"/>
<path d="M14.0714 18.5591C14.0714 18.5591 14.0647 18.5769 14.0625 18.5858C14.0647 18.5769 14.0692 18.568 14.0714 18.5591Z" fill="#F4D733"/>
<path d="M14.9742 19.15H16.3167C16.3167 19.15 16.3122 19.1411 16.31 19.1367C16.281 19.0854 16.252 19.0318 16.223 18.9783C16.2163 18.9649 16.2118 18.9538 16.2052 18.9404C16.1806 18.8914 16.1583 18.8401 16.136 18.7888C16.1293 18.7732 16.1226 18.7553 16.116 18.7397C16.0959 18.6884 16.078 18.6371 16.0602 18.5858C16.058 18.5769 16.0535 18.568 16.0513 18.5591H14.071C14.071 18.5591 14.0643 18.5769 14.0621 18.5858C14.0443 18.6394 14.0264 18.6907 14.0064 18.7397C13.9997 18.7553 13.993 18.7732 13.9863 18.7888C13.964 18.8401 13.9417 18.8914 13.9172 18.9404C13.9105 18.9538 13.906 18.9649 13.8993 18.9783C13.8726 19.0318 13.8436 19.0854 13.8124 19.1367C13.8101 19.1411 13.8079 19.1456 13.8057 19.15H14.9742Z" fill="#E79E25"/>
<path d="M20.936 5.15191V5.13853C21.0007 4.78619 20.6417 4.48291 20.2782 4.48291H9.83949C9.476 4.48291 9.18164 4.77727 9.18164 5.13853V5.15191H20.936Z" fill="#F4D733"/>
<path d="M13.3512 17.1315H16.772C16.772 17.1426 16.772 17.1538 16.772 17.1649V17.1538C16.772 17.1538 16.772 17.1426 16.772 17.1359C20.2732 15.4054 20.8953 8.70649 20.9422 5.00244H14.9769L9.21008 5.01359C9.21008 5.04258 9.18555 5.06265 9.18555 5.09164C9.2413 8.81353 9.88354 15.4188 13.3534 17.1337C13.3534 17.1404 13.3534 17.1448 13.3534 17.1515V17.1627C13.3534 17.1627 13.3534 17.1404 13.3534 17.1292L13.3512 17.1315Z" fill="#F4D733"/>
<path d="M14.9542 6.34717L14.9453 17.2698L16.7695 17.1337V17.1382C19.9182 15.5816 20.7322 10.127 20.8994 6.3494H14.9542V6.34717Z" fill="#E79E25"/>
<path d="M14.9743 18.5583H16.2454C16.5353 18.5583 16.7717 18.322 16.7717 18.0321V17.644H13.3486V18.0321C13.3486 18.322 13.585 18.5583 13.8749 18.5583H14.9743Z" fill="#F4D733"/>
<path d="M14.9473 17.6157V18.5992L16.2474 18.5568C16.5373 18.5568 16.7736 18.3204 16.7736 18.0305V17.6425L14.9473 17.6157Z" fill="#E79E25"/>
<path d="M19.4837 21.2044C19.1447 21.0506 17.1711 20.6068 16.3103 19.1372C16.3126 19.1417 16.3148 19.1461 16.317 19.1506H13.806C13.806 19.1506 13.8105 19.1417 13.8127 19.1372C12.952 20.6068 10.9784 21.0506 10.6394 21.2044C10.3094 21.3382 10.1221 21.4854 10.1221 21.6437C10.1221 22.1812 12.274 22.616 14.9746 22.6406C15.0036 22.6406 15.0326 22.6406 15.0615 22.6406C15.0905 22.6406 15.1195 22.6406 15.1485 22.6406C17.8491 22.616 20.001 22.1789 20.001 21.6415C20.001 21.4832 19.8137 21.3338 19.4837 21.2022V21.2044Z" fill="#F4D733"/>
<path d="M19.4831 21.2033C19.1441 21.0494 17.1706 20.6057 16.3098 19.1361C16.312 19.1405 16.3143 19.145 16.3165 19.1495L14.9473 19.1294V22.6305C14.9584 22.6818 15.0521 22.6417 15.0632 22.6417C15.0922 22.6417 15.1212 22.6417 15.1502 22.6417C17.8507 22.6171 20.0027 22.18 20.0027 21.6426C20.0027 21.4843 19.8154 21.3349 19.4853 21.2033H19.4831Z" fill="#E79E25"/>
<path d="M16.0607 18.5839C16.0607 18.5839 16.054 18.566 16.0518 18.5571C16.0518 18.5571 16.0584 18.575 16.0607 18.5839Z" fill="#F4D733"/>
<path d="M15.1487 17.642H16.7743V17.1648C16.7743 17.1648 16.7743 17.1425 16.7743 17.1313H13.3535C13.3535 17.1425 13.3535 17.1536 13.3535 17.1648V17.642H15.1509H15.1487Z" fill="#E79E25"/>
<path d="M9.84096 4.48096H15.1729V5.14996H9.18534V5.13658C9.12066 4.78424 9.4797 4.48096 9.84319 4.48096H9.84096Z" fill="#F8E959"/>
<path d="M15.173 5.00244V6.35829L9.21885 6.35383C9.19209 5.87215 9.1854 5.41945 9.17871 5.00244H15.173Z" fill="#F8E959"/>
<path d="M20.2773 4.48096H14.9453V5.14996H20.9329V5.13658C20.9976 4.78424 20.6385 4.48096 20.275 4.48096H20.2773Z" fill="#F3D34A"/>
<path d="M14.9541 5.00244V6.35829H20.9015C20.9283 5.87661 20.935 5.42168 20.9417 5.00467H14.9541V5.00244Z" fill="#F3D34A"/>
<path d="M8.73917 21.4116H21.2919C21.5818 21.4116 21.8182 21.648 21.8182 21.9379V25.9319C21.8182 26.2218 21.5818 26.4581 21.2919 26.4581H8.73917C8.44927 26.4581 8.21289 26.2218 8.21289 25.9319V21.9379C8.21289 21.648 8.44927 21.4116 8.73917 21.4116Z" fill="#6A3C15"/>
<path d="M10.1881 22.729H19.8418C20.2053 22.729 20.5019 23.0256 20.5019 23.3891V24.484C20.5019 24.8475 20.2053 25.1441 19.8418 25.1441H10.1904C9.82687 25.1441 9.53027 24.8475 9.53027 24.484V23.3891C9.53027 23.0256 9.82687 22.729 10.1904 22.729H10.1881Z" fill="#E48C2B"/>
</svg>
