<svg width="30" height="31" viewBox="0 0 30 31" fill="none" xmlns="http://www.w3.org/2000/svg">
<path d="M7.96337 24.3079L7.53758 24.7337C7.34097 24.9308 7.23056 25.1978 7.23056 25.4763C7.23056 25.7547 7.34097 26.0217 7.53758 26.2188L7.6803 26.3616C7.87743 26.5582 8.14447 26.6686 8.42288 26.6686C8.7013 26.6686 8.96834 26.5582 9.16547 26.3616L9.57535 25.9517C13.075 26.4368 16.8147 26.4321 20.6967 25.9377L21.1206 26.3616C21.2181 26.4591 21.3338 26.5365 21.4613 26.5892C21.5887 26.6419 21.7253 26.6689 21.8632 26.6686C22.0011 26.6688 22.1377 26.6418 22.2651 26.5891C22.3925 26.5365 22.5083 26.4591 22.6058 26.3616L22.7485 26.2188C22.9451 26.0217 23.0555 25.7547 23.0555 25.4763C23.0555 25.1978 22.9451 24.9308 22.7485 24.7337L22.3227 24.3079C23.6072 18.4684 23.6072 12.7852 22.3227 6.9457L22.7485 6.51991C22.9451 6.32279 23.0555 6.05574 23.0555 5.77733C23.0555 5.49892 22.9451 5.23187 22.7485 5.03475L22.6058 4.89202C22.4087 4.69541 22.1416 4.585 21.8632 4.585C21.5848 4.585 21.3177 4.69541 21.1206 4.89202L20.7107 5.3019C17.2108 4.81651 13.4711 4.82126 9.58936 5.31568L9.16547 4.89179C8.96828 4.69529 8.70126 4.58496 8.42288 4.58496C8.14451 4.58496 7.87749 4.69529 7.6803 4.89179L7.53758 5.03451C7.34097 5.23163 7.23056 5.49868 7.23056 5.77709C7.23056 6.0555 7.34097 6.32255 7.53758 6.51967L7.96337 6.94546C6.67888 12.7852 6.67888 18.4684 7.96337 24.3079ZM8.6055 6.58023L8.0415 6.01623C7.97822 5.95283 7.94267 5.86691 7.94267 5.77733C7.94267 5.68775 7.97822 5.60183 8.0415 5.53843L8.18422 5.39594C8.24762 5.33266 8.33354 5.29712 8.42312 5.29712C8.5127 5.29712 8.59862 5.33266 8.66202 5.39594L9.20964 5.94356C9.28776 6.02193 9.39843 6.05897 9.50767 6.04496C13.4531 5.52822 17.2477 5.52371 20.7863 6.03214C20.841 6.04001 20.8969 6.03501 20.9494 6.01753C21.0019 6.00006 21.0497 5.97058 21.0888 5.93145L21.6243 5.39594C21.6877 5.33266 21.7736 5.29712 21.8632 5.29712C21.9528 5.29712 22.0387 5.33266 22.1021 5.39594L22.2448 5.53867C22.308 5.6021 22.3435 5.688 22.3435 5.77756C22.3435 5.86713 22.308 5.95303 22.2448 6.01646L21.6808 6.58046C21.6383 6.62288 21.6072 6.67538 21.5905 6.73307C21.5738 6.79075 21.5719 6.85173 21.5851 6.91032C22.9029 12.7757 22.9029 18.4784 21.5851 24.3437C21.5719 24.4023 21.5738 24.4633 21.5905 24.521C21.6072 24.5787 21.6383 24.6312 21.6808 24.6736L22.2448 25.2376C22.3081 25.301 22.3436 25.3869 22.3436 25.4765C22.3436 25.5661 22.3081 25.652 22.2448 25.7154L22.1021 25.8579C22.0387 25.9212 21.9528 25.9568 21.8632 25.9568C21.7736 25.9568 21.6877 25.9212 21.6243 25.8579L21.0767 25.3103C21.038 25.2717 20.991 25.2425 20.9393 25.225C20.8876 25.2074 20.8326 25.202 20.7784 25.2091C16.8328 25.7258 13.0384 25.7304 9.49983 25.2219C9.38845 25.2058 9.2766 25.2433 9.19729 25.3226L8.66178 25.8579C8.59832 25.921 8.51243 25.9565 8.42288 25.9565C8.33334 25.9565 8.24745 25.921 8.18399 25.8579L8.04126 25.7152C7.97804 25.6517 7.94253 25.5658 7.94253 25.4763C7.94253 25.3867 7.97804 25.3008 8.04126 25.2374L8.60526 24.6734C8.6917 24.5872 8.7278 24.4625 8.70097 24.3435C7.38322 18.4781 7.38322 12.7754 8.70097 6.91008C8.71416 6.85151 8.71233 6.79055 8.69564 6.73288C8.67895 6.67521 8.64794 6.6227 8.6055 6.58023Z" fill="#999999"/>
<path d="M12.6988 13.1271C13.2385 13.4082 13.8182 13.4847 14.2905 13.4847C14.491 13.4847 14.6717 13.4707 14.822 13.4529V18.0689C13.8013 18.1798 12.9716 18.7595 12.7446 19.5567C12.7295 19.6096 12.727 19.6654 12.7371 19.7195C12.7472 19.7737 12.7698 19.8247 12.8029 19.8687C12.8361 19.9126 12.8791 19.9483 12.9283 19.9728C12.9776 19.9974 13.032 20.0102 13.087 20.0102H17.2694C17.3245 20.0103 17.3789 19.9975 17.4282 19.9729C17.4775 19.9484 17.5205 19.9127 17.5537 19.8688C17.5869 19.8248 17.6094 19.7737 17.6196 19.7196C17.6297 19.6654 17.6272 19.6097 17.6121 19.5567C17.3851 18.7595 16.5551 18.1798 15.5344 18.0689V15.3512C15.7558 15.3935 16.0369 15.4313 16.353 15.4313C16.7539 15.4313 17.2058 15.3712 17.643 15.1853C18.8503 14.6714 19.4423 13.4113 19.467 13.3579C19.4878 13.3128 19.4989 13.2638 19.4997 13.214C19.5004 13.1643 19.4908 13.115 19.4713 13.0693C19.4518 13.0236 19.423 12.9824 19.3867 12.9485C19.3504 12.9145 19.3074 12.8886 19.2604 12.8723C19.2051 12.853 17.8866 12.4056 16.6788 12.9195C16.2017 13.1226 15.8223 13.4417 15.5344 13.7573V13.0297H15.5328C15.5328 12.9879 15.5271 12.9461 15.5123 12.9062C15.4922 12.8511 14.9996 11.5488 13.8355 10.9428C12.6714 10.3367 11.3224 10.6806 11.2656 10.6956C11.2176 10.7083 11.1727 10.7308 11.1339 10.7619C11.0951 10.7929 11.0632 10.8317 11.0403 10.8757C11.0174 10.9198 11.0039 10.9682 11.0007 11.0177C10.9976 11.0673 11.0048 11.117 11.022 11.1636C11.0424 11.219 11.5347 12.5213 12.6988 13.1271ZM16.9579 13.5752C17.5406 13.3273 18.1825 13.371 18.5945 13.4424C18.3606 13.7891 17.9467 14.2819 17.3642 14.5298C16.7807 14.7782 16.1383 14.7343 15.7261 14.6623C15.9586 14.3163 16.3713 13.8248 16.9579 13.5752ZM13.7054 19.2981C14.0298 18.9708 14.5753 18.7607 15.1785 18.7607C15.7816 18.7607 16.3271 18.9708 16.6515 19.2981H13.7054ZM13.5066 11.5749C14.0683 11.8673 14.4425 12.3907 14.6491 12.7542C14.2326 12.7937 13.5893 12.7875 13.0277 12.4951C12.466 12.2028 12.0915 11.6792 11.8852 11.3159C12.3015 11.2762 12.9448 11.2826 13.5066 11.5749Z" fill="#999999"/>
</svg>
