<svg width="41" height="41" viewBox="0 0 41 41" fill="none" xmlns="http://www.w3.org/2000/svg">
<g clip-path="url(#clip0_513_18294)">
<path d="M37.3533 1.07459C37.3 0.878797 37.1674 0.714058 36.9874 0.62028C36.6322 0.432323 36.1918 0.567914 36.0038 0.923122C36.0033 0.924027 36.0028 0.924932 36.0024 0.925836C36.0024 0.945939 32.3156 8.09836 20.998 9.34471C19.5216 9.50221 18.0786 9.88737 16.7202 10.4865C14.2887 11.5436 12.2806 13.3834 11.0151 15.7131C9.83371 17.9016 9.34442 20.3971 9.61198 22.8696C9.80908 24.672 10.411 26.4065 11.3729 27.9434C9.36271 29.3868 2.98624 34.3762 2.41131 39.7315C2.3691 40.1311 2.65897 40.4893 3.05861 40.5315C3.45834 40.5737 3.81647 40.2839 3.85868 39.8842C4.38536 35.1039 10.3678 30.4683 12.2333 29.1254C14.4727 31.8754 17.8258 33.4273 21.4241 33.6806C23.846 33.8369 26.2707 33.4239 28.5042 32.4745C30.9287 31.4572 33.07 29.8664 34.744 27.8389C39.0579 22.6123 41.1124 13.8275 37.3533 1.07459ZM12.6515 27.2238C12.374 26.7868 12.1295 26.3299 11.9197 25.8568C11.4783 24.8584 11.1935 23.798 11.0754 22.7128C10.8292 20.5352 11.2497 18.3341 12.2816 16.4006C13.3969 14.3508 15.166 12.7332 17.3072 11.8052C18.5313 11.2722 19.8305 10.9319 21.1588 10.7961C28.6288 9.99201 33.0232 6.66707 35.2907 4.25479C33.9585 8.64102 31.6647 12.675 28.5766 16.0629L28.1343 11.6082C28.1118 11.207 27.7682 10.8999 27.367 10.9224C26.9658 10.945 26.6587 11.2885 26.6812 11.6898C26.6823 11.7096 26.6842 11.7294 26.6869 11.749L27.2538 17.4741C23.8726 20.9036 19.1727 24.3491 12.6515 27.2238ZM33.6182 26.9061V26.9102C32.0973 28.7619 30.1491 30.2162 27.9413 31.1477C25.9111 32.0057 23.7076 32.3748 21.5086 32.2252C18.4473 32.0701 15.5745 30.6996 13.5279 28.4178C15.9263 27.3565 18.2453 26.1245 20.4673 24.7311L26.8558 25.9372C27.2528 25.9994 27.6251 25.7279 27.6873 25.3309C27.7473 24.948 27.4966 24.5851 27.1171 24.5059L22.2081 23.5772C24.4748 22.0205 26.5847 20.2471 28.5082 18.2822C28.5435 18.2519 28.5758 18.2182 28.6047 18.1817C33.6785 12.8988 35.8375 7.67219 36.7381 4.45581C39.2228 15.0538 37.3211 22.4273 33.6182 26.9061Z" fill="#2CB34A"/>
</g>
<defs>
<clipPath id="clip0_513_18294">
<rect width="40" height="40" fill="white" transform="translate(0.864258 0.535645)"/>
</clipPath>
</defs>
</svg>
