<svg width="37" height="37" viewBox="0 0 37 37" fill="none" xmlns="http://www.w3.org/2000/svg">
<g clip-path="url(#clip0_513_18286)">
<path d="M35.4179 9.22712C35.4179 9.09035 35.3876 8.95358 35.3268 8.82441C35.2052 8.56608 34.9697 8.39132 34.7113 8.33813L19.2339 0.831168C18.9832 0.709598 18.6868 0.709598 18.4361 0.831168L2.80671 8.40652C2.50279 8.55088 2.30524 8.85481 2.29004 9.19672V9.20432C2.29004 9.21192 2.29004 9.21952 2.29004 9.23471V28.2453C2.29004 28.5948 2.48759 28.9139 2.80671 29.0659L18.4361 36.6412C18.4437 36.6412 18.4437 36.6412 18.4513 36.6488C18.4741 36.6564 18.4969 36.664 18.5197 36.6792C18.5273 36.6792 18.5349 36.6868 18.5501 36.6868C18.5729 36.6944 18.5957 36.702 18.6184 36.7096C18.626 36.7096 18.6336 36.7172 18.6412 36.7172C18.664 36.7248 18.6944 36.7248 18.7172 36.7324C18.7248 36.7324 18.7324 36.7324 18.74 36.7324C18.7704 36.7324 18.8084 36.74 18.8388 36.74C18.8692 36.74 18.9072 36.74 18.9376 36.7324C18.9452 36.7324 18.9528 36.7324 18.9604 36.7324C18.9832 36.7324 19.0136 36.7248 19.0363 36.7172C19.0439 36.7172 19.0515 36.7096 19.0591 36.7096C19.0819 36.702 19.1047 36.6944 19.1275 36.6868C19.1351 36.6868 19.1427 36.6792 19.1579 36.6792C19.1807 36.6716 19.2035 36.664 19.2263 36.6488C19.2339 36.6488 19.2339 36.6488 19.2415 36.6412L34.9165 29.0431C35.228 28.8911 35.4331 28.572 35.4331 28.2225V9.24991C35.4179 9.24231 35.4179 9.23471 35.4179 9.22712ZM18.8312 2.66232L32.3863 9.23471L27.3943 11.6585L13.8392 5.08613L18.8312 2.66232ZM18.8312 15.8071L5.27611 9.23471L11.7497 6.09668L25.3048 12.6691L18.8312 15.8071ZM4.11359 10.7012L17.9194 17.3951V34.3618L4.11359 27.6678V10.7012ZM19.743 34.3618V17.3951L26.2242 14.2495V18.6868C26.2242 19.1883 26.6345 19.5986 27.136 19.5986C27.6374 19.5986 28.0477 19.1883 28.0477 18.6868V13.3605L33.5944 10.6708V27.6374L19.743 34.3618Z" fill="#2CB34A"/>
</g>
<defs>
<clipPath id="clip0_513_18286">
<rect width="36" height="36" fill="white" transform="translate(0.864258 0.73999)"/>
</clipPath>
</defs>
</svg>
