<svg width="37" height="37" viewBox="0 0 37 37" fill="none" xmlns="http://www.w3.org/2000/svg">
<g id="shopping-bag" clip-path="url(#clip0_513_18263)">
<g id="Group">
<g id="Group_2">
<path id="Vector" d="M33.2457 32.0029L31.1741 8.65615C31.1368 8.19414 30.7493 7.8439 30.2798 7.8439H25.913C25.9056 3.96147 22.746 0.80188 18.8636 0.80188C14.9811 0.80188 11.8215 3.96147 11.8141 7.8439H7.44729C6.98528 7.8439 6.59778 8.19414 6.55307 8.65615L4.48145 32.0029C4.48145 32.0327 4.48145 32.055 4.48145 32.0848C4.48145 34.6855 6.8735 36.8019 9.80954 36.8019H27.9176C30.8536 36.8019 33.2457 34.6855 33.2457 32.0848C33.2457 32.055 33.2457 32.0327 33.2457 32.0029ZM18.8636 2.59033C21.7623 2.59033 24.1171 4.94512 24.1246 7.8439H13.6025C13.61 4.94512 15.9648 2.59033 18.8636 2.59033ZM27.9176 35.006H9.80954C7.87205 35.006 6.29225 33.7168 6.2699 32.1147L8.267 9.63235H11.8141V12.7696C11.8141 13.2614 12.2165 13.6638 12.7083 13.6638C13.2001 13.6638 13.6025 13.2614 13.6025 12.7696V9.63235H24.1246V12.7696C24.1246 13.2614 24.527 13.6638 25.0188 13.6638C25.5106 13.6638 25.913 13.2614 25.913 12.7696V9.63235H29.4601L31.4572 32.1221C31.4349 33.7168 29.8551 35.006 27.9176 35.006Z" fill="#FBCD3B"/>
<path id="Vector_2" d="M22.5811 19.4164L17.3052 24.6923L15.1516 22.5387C14.8013 22.1885 14.235 22.1885 13.8847 22.5387C13.5345 22.889 13.5345 23.4553 13.8847 23.8056L16.6717 26.5926C16.8431 26.7639 17.0741 26.8534 17.3052 26.8534C17.5362 26.8534 17.7597 26.7639 17.9386 26.5926L23.8479 20.6832C24.1981 20.333 24.1981 19.7666 23.8479 19.4164C23.4977 19.0736 22.9313 19.0736 22.5811 19.4164Z" fill="#FBCD3B"/>
</g>
</g>
</g>
<defs>
<clipPath id="clip0_513_18263">
<rect width="36" height="36" fill="white" transform="translate(0.864258 0.80188)"/>
</clipPath>
</defs>
</svg>
