<svg width="41" height="41" viewBox="0 0 41 41" fill="none" xmlns="http://www.w3.org/2000/svg">
<g clip-path="url(#clip0_513_18245)">
<path d="M32.0017 18.2343C31.8414 17.7397 31.4218 17.386 30.9072 17.3113L24.8069 16.4248L22.0789 10.8976C21.8492 10.431 21.3833 10.1412 20.8632 10.1412C20.3431 10.1412 19.8771 10.431 19.6475 10.8971L16.9193 16.4248L10.8189 17.3113C10.3046 17.386 9.88527 17.7394 9.72441 18.2341C9.5641 18.728 9.69543 19.2604 10.0675 19.6237L14.482 23.9264L13.4399 30.0019C13.3518 30.5142 13.5583 31.0223 13.9789 31.328C14.2166 31.5008 14.4947 31.5887 14.7746 31.5886C14.9901 31.5886 15.2067 31.5365 15.4068 31.4314L20.8632 28.5628L26.3192 31.4315C26.5129 31.5332 26.731 31.587 26.9498 31.587C27.2382 31.587 27.5138 31.4975 27.747 31.328C28.1669 31.0226 28.3736 30.5148 28.2861 30.0023L27.8739 27.5986C27.8148 27.2547 27.488 27.0238 27.1446 27.0828C26.8007 27.1418 26.5699 27.4683 26.6289 27.8121L27.0411 30.2154C27.0469 30.2501 27.0324 30.2858 27.0042 30.3063C26.9623 30.3369 26.9319 30.3265 26.9067 30.3133L21.1567 27.2903C20.9728 27.1937 20.7531 27.1936 20.5689 27.2903L14.8183 30.3134C14.7876 30.3296 14.7494 30.3268 14.7212 30.3063C14.6925 30.2855 14.6784 30.2509 14.6844 30.2158L15.7827 23.8127C15.8179 23.6077 15.75 23.3987 15.6011 23.2537L10.9492 18.7194C10.924 18.6948 10.9146 18.6575 10.9254 18.6245C10.9362 18.5912 10.9656 18.5663 11.0002 18.5613L17.4292 17.6271C17.635 17.5972 17.8128 17.468 17.9048 17.2815L20.7802 11.4557C20.8114 11.3923 20.9142 11.3918 20.9457 11.456L23.8211 17.2815C23.913 17.468 24.0909 17.5972 24.2966 17.6271L30.7257 18.5613C30.7602 18.5664 30.7894 18.5909 30.8004 18.6248C30.8111 18.6578 30.8018 18.6949 30.7768 18.7192L26.1248 23.2537C25.976 23.3987 25.908 23.6079 25.9432 23.8127L26.2903 25.8358C26.3491 26.1795 26.6758 26.4105 27.0194 26.3515C27.3632 26.2925 27.5942 25.9659 27.5351 25.6222L27.2443 23.9264L31.6587 19.6234C32.0311 19.2603 32.1624 18.7278 32.0017 18.2343Z" fill="#2CB34A" stroke="#2CB34A" stroke-width="0.3"/>
<path d="M4.49566 20.233H1.49582C1.14699 20.233 0.864258 20.5158 0.864258 20.8646C0.864258 21.2134 1.14699 21.4961 1.49582 21.4961H4.49566C4.84457 21.4961 5.12723 21.2133 5.12723 20.8646C5.12723 20.5158 4.84449 20.233 4.49566 20.233Z" fill="#2CB34A" stroke="#2CB34A" stroke-width="0.3"/>
<path d="M40.2339 20.2311H37.2341C36.8852 20.2311 36.6025 20.5139 36.6025 20.8626C36.6025 21.2115 36.8853 21.4942 37.2341 21.4942H40.2339C40.5828 21.4942 40.8655 21.2114 40.8655 20.8626C40.8655 20.5138 40.5828 20.2311 40.2339 20.2311Z" fill="#2CB34A" stroke="#2CB34A" stroke-width="0.3"/>
<path d="M8.84626 31.9903L6.72509 34.1114C6.47837 34.3579 6.47837 34.7579 6.72501 35.0045C6.84837 35.1279 7.01001 35.1895 7.17165 35.1895C7.33321 35.1895 7.49493 35.1279 7.61813 35.0046L9.73931 32.8834C9.98603 32.6368 9.98603 32.2369 9.73938 31.9903C9.49274 31.7436 9.09282 31.7436 8.84626 31.9903Z" fill="#2CB34A" stroke="#2CB34A" stroke-width="0.3"/>
<path d="M34.1119 6.72084L31.9907 8.84193C31.744 9.08857 31.744 9.48849 31.9906 9.73513C32.114 9.85849 32.2756 9.92013 32.4373 9.92013C32.5989 9.92013 32.7605 9.85849 32.8838 9.73505L35.005 7.61396C35.2517 7.3674 35.2517 6.96748 35.0051 6.72084C34.7584 6.47412 34.3585 6.47404 34.1119 6.72084Z" fill="#2CB34A" stroke="#2CB34A" stroke-width="0.3"/>
<path d="M20.8669 36.6022C20.518 36.6022 20.2354 36.885 20.2354 37.2337V40.2335C20.2354 40.5823 20.5181 40.8651 20.8669 40.8651C21.2158 40.8651 21.4985 40.5823 21.4985 40.2335V37.2337C21.4985 36.8849 21.2158 36.6022 20.8669 36.6022Z" fill="#2CB34A" stroke="#2CB34A" stroke-width="0.3"/>
<path d="M20.8669 5.12686C21.2158 5.12686 21.4985 4.84405 21.4985 4.4953V1.49545C21.4985 1.14663 21.2157 0.863892 20.8669 0.863892C20.518 0.863892 20.2354 1.1467 20.2354 1.49545V4.4953C20.2354 4.84413 20.518 5.12686 20.8669 5.12686Z" fill="#2CB34A" stroke="#2CB34A" stroke-width="0.3"/>
<path d="M32.8838 31.9903C32.6373 31.7436 32.2374 31.7436 31.9906 31.9903C31.744 32.2368 31.744 32.6368 31.9907 32.8834L34.1119 35.0046C34.2352 35.128 34.3969 35.1896 34.5585 35.1896C34.7201 35.1896 34.8818 35.128 35.0051 35.0045C35.2517 34.7579 35.2517 34.358 35.005 34.1114L32.8838 31.9903Z" fill="#2CB34A" stroke="#2CB34A" stroke-width="0.3"/>
<path d="M8.84619 9.73505C8.96955 9.85841 9.13119 9.92005 9.29283 9.92005C9.45439 9.92005 9.61611 9.85841 9.73939 9.73521C9.98603 9.48857 9.98603 9.08864 9.73939 8.842L7.61822 6.72075C7.37166 6.47411 6.97182 6.47411 6.72502 6.72075C6.47838 6.96731 6.47838 7.36723 6.72502 7.61387L8.84619 9.73505Z" fill="#2CB34A" stroke="#2CB34A" stroke-width="0.3"/>
</g>
<defs>
<clipPath id="clip0_513_18245">
<rect width="40" height="40" fill="white" transform="translate(0.864258 0.86377)"/>
</clipPath>
</defs>
</svg>
